<svg width="1250" height="200" viewBox="0 0 1250 200" fill="none" xmlns="http://www.w3.org/2000/svg">
<path d="M81.6309 115.286C80.0794 116.838 78.1689 117.982 76.0688 118.618C73.9688 119.255 71.7442 119.362 69.5924 118.933C67.4406 118.503 65.4283 117.548 63.7339 116.154C62.0395 114.76 60.7155 112.969 59.8795 110.94C59.0434 108.911 58.7211 106.707 58.9411 104.524C59.1611 102.341 59.9167 100.246 61.1408 98.4244C62.3648 96.6033 64.0195 95.1125 65.9581 94.0843C67.8966 93.0561 70.0589 92.5224 72.2532 92.5305C73.128 92.5315 74.0004 92.6206 74.8574 92.7966C76.5423 93.1368 78.1447 93.8025 79.5748 94.7561C80.3142 95.2478 81.003 95.8117 81.6309 96.4396L91.0579 105.859L81.6309 115.286Z" fill="url(#paint0_linear_1320_46559)"/>
<path fill-rule="evenodd" clip-rule="evenodd" d="M100 200C155.228 200 200 155.228 200 100C200 44.7715 155.228 0 100 0C44.7715 0 0 44.7715 0 100C0 155.228 44.7715 200 100 200ZM136.541 92.7946C138.289 92.4437 140.088 92.4437 141.836 92.7946C143.377 93.1023 144.85 93.6825 146.187 94.5077C146.94 94.9841 147.832 95.1912 148.719 95.0952C149.605 94.9993 150.432 94.606 151.066 93.9794L160.282 84.7633C160.68 84.3659 160.989 83.8878 161.188 83.3611C161.386 82.8344 161.469 82.2714 161.432 81.7098C161.395 81.1482 161.237 80.6012 160.971 80.1054C160.705 79.6096 160.335 79.1766 159.888 78.8355C159.107 78.2336 158.307 77.6717 157.489 77.15C150.957 72.9784 143.196 71.1647 135.492 72.0094C127.788 72.8542 120.604 76.3067 115.132 81.7945L105.705 91.2234L96.2761 81.7945C91.4746 76.9975 85.3497 73.7439 78.6868 72.451C72.0239 71.1581 65.1267 71.8848 58.8796 74.5379V63.9419C58.8796 62.8962 58.4642 61.8934 57.7248 61.154C56.9854 60.4146 55.9825 59.9992 54.9369 59.9992H42.1231C41.0774 59.9992 40.0745 60.4146 39.3351 61.154C38.5957 61.8934 38.1804 62.8962 38.1804 63.9419V105.859C38.1788 112.589 40.1733 119.169 43.9118 124.765C47.6502 130.362 52.9646 134.724 59.1826 137.3C65.4006 139.876 72.2428 140.55 78.8438 139.236C85.4448 137.923 91.5079 134.681 96.2662 129.921L129.759 96.4298C131.611 94.574 133.971 93.309 136.541 92.7946ZM141.834 118.921C140.088 119.272 138.289 119.272 136.543 118.921C133.972 118.407 131.611 117.142 129.76 115.286L125.908 111.433C125.168 110.694 124.166 110.279 123.12 110.279C122.075 110.279 121.072 110.694 120.333 111.433L111.264 120.502C110.898 120.868 110.607 121.303 110.409 121.781C110.211 122.259 110.109 122.772 110.109 123.29C110.109 123.808 110.211 124.321 110.409 124.799C110.607 125.278 110.898 125.713 111.264 126.079L115.118 129.931C120.591 135.418 127.774 138.871 135.478 139.716C143.182 140.56 150.943 138.747 157.475 134.575C158.155 134.14 159.052 133.463 159.915 132.76C160.345 132.412 160.696 131.978 160.947 131.485C161.198 130.993 161.343 130.453 161.371 129.901C161.4 129.349 161.313 128.797 161.114 128.282C160.916 127.766 160.612 127.297 160.221 126.907L151.06 117.746C150.426 117.119 149.599 116.725 148.713 116.629C147.827 116.533 146.934 116.739 146.181 117.215C144.844 118.036 143.372 118.613 141.834 118.921Z" fill="url(#paint1_linear_1320_46559)"/>
<path d="M250 161.782V43.1411H297.496C306.223 43.1411 313.502 44.4349 319.333 47.0224C325.164 49.61 329.547 53.2017 332.481 57.7975C335.416 62.3547 336.883 67.607 336.883 73.5545C336.883 78.1889 335.957 82.2633 334.103 85.7778C332.25 89.2536 329.701 92.1115 326.457 94.3515C323.252 96.5528 319.584 98.1169 315.452 99.0438V100.202C319.97 100.396 324.198 101.67 328.137 104.026C332.115 106.382 335.339 109.684 337.81 113.932C340.282 118.141 341.517 123.162 341.517 128.994C341.517 135.289 339.953 140.908 336.826 145.851C333.736 150.756 329.161 154.638 323.098 157.495C317.035 160.353 309.563 161.782 300.682 161.782H250ZM275.08 141.275H295.527C302.516 141.275 307.613 139.943 310.818 137.278C314.023 134.574 315.626 130.983 315.626 126.503C315.626 123.22 314.834 120.324 313.251 117.813C311.668 115.303 309.409 113.333 306.474 111.904C303.578 110.475 300.122 109.761 296.106 109.761H275.08V141.275ZM275.08 92.7873H293.673C297.11 92.7873 300.161 92.1887 302.825 90.9915C305.528 89.7557 307.652 88.0177 309.197 85.7778C310.78 83.5378 311.571 80.8537 311.571 77.7255C311.571 73.4386 310.046 69.9821 306.996 67.356C303.984 64.7298 299.697 63.4167 294.137 63.4167H275.08V92.7873Z" fill="url(#paint2_linear_1320_46559)"/>
<path d="M382.743 163.462C377.067 163.462 372.009 162.477 367.568 160.508C363.127 158.5 359.613 155.545 357.026 151.644C354.477 147.705 353.203 142.8 353.203 136.93C353.203 131.987 354.111 127.835 355.925 124.475C357.74 121.115 360.212 118.412 363.339 116.365C366.467 114.318 370.02 112.773 373.997 111.731C378.013 110.688 382.222 109.954 386.624 109.529C391.799 108.988 395.969 108.486 399.135 108.023C402.302 107.521 404.599 106.787 406.028 105.822C407.457 104.856 408.171 103.427 408.171 101.535V101.187C408.171 97.5183 407.013 94.6797 404.696 92.6715C402.418 90.6632 399.174 89.6591 394.965 89.6591C390.524 89.6591 386.991 90.6439 384.365 92.6135C381.739 94.5446 380.002 96.9776 379.152 99.9128L356.331 98.059C357.489 92.6522 359.768 87.9791 363.166 84.0399C366.564 80.062 370.947 77.011 376.314 74.8869C381.72 72.7242 387.976 71.6428 395.081 71.6428C400.024 71.6428 404.754 72.2221 409.272 73.3807C413.828 74.5393 417.864 76.3351 421.378 78.7682C424.93 81.2013 427.73 84.3295 429.776 88.1529C431.823 91.9377 432.846 96.4756 432.846 101.767V161.782H409.446V149.443H408.751C407.322 152.224 405.41 154.676 403.016 156.8C400.622 158.886 397.745 160.527 394.386 161.724C391.026 162.883 387.146 163.462 382.743 163.462ZM389.81 146.431C393.44 146.431 396.645 145.716 399.425 144.287C402.205 142.82 404.387 140.85 405.97 138.378C407.554 135.907 408.345 133.107 408.345 129.979V120.536C407.573 121.038 406.511 121.501 405.159 121.926C403.847 122.312 402.36 122.679 400.699 123.027C399.039 123.336 397.379 123.626 395.718 123.896C394.058 124.128 392.552 124.34 391.2 124.533C388.304 124.958 385.775 125.634 383.612 126.561C381.45 127.488 379.77 128.743 378.573 130.326C377.376 131.871 376.777 133.802 376.777 136.119C376.777 139.479 377.994 142.047 380.427 143.824C382.898 145.562 386.026 146.431 389.81 146.431Z" fill="url(#paint3_linear_1320_46559)"/>
<path d="M476.665 110.34V161.782H451.99V72.8014H475.506V88.5005H476.549C478.518 83.3254 481.82 79.2317 486.453 76.2193C491.087 73.1683 496.706 71.6428 503.309 71.6428C509.487 71.6428 514.874 72.9945 519.469 75.6979C524.064 78.4013 527.636 82.2633 530.185 87.284C532.733 92.266 534.008 98.2135 534.008 105.126V161.782H509.333V109.529C509.371 104.084 507.981 99.8355 505.162 96.7845C502.343 93.6949 498.463 92.1501 493.52 92.1501C490.199 92.1501 487.264 92.8646 484.716 94.2935C482.206 95.7225 480.236 97.808 478.808 100.55C477.418 103.253 476.703 106.517 476.665 110.34Z" fill="url(#paint4_linear_1320_46559)"/>
<path d="M575.813 136.177L575.871 106.575H579.462L607.96 72.8014H636.284L597.997 117.524H592.147L575.813 136.177ZM553.455 161.782V43.1411H578.13V161.782H553.455ZM609.06 161.782L582.88 123.027L599.33 105.59L637.964 161.782H609.06Z" fill="url(#paint5_linear_1320_46559)"/>
<path d="M680.363 163.636C672.176 163.636 665.322 161.686 659.8 157.785C654.278 153.884 650.378 148.42 648.1 141.391C645.86 134.362 645.494 126.174 647 116.828C648.467 107.714 651.382 99.7776 655.746 93.0191C660.148 86.2219 665.612 80.9696 672.138 77.262C678.702 73.5159 685.923 71.6428 693.801 71.6428C701.987 71.6428 708.822 73.6124 714.305 77.5517C719.827 81.4523 723.727 86.9364 726.006 94.0039C728.284 101.033 728.67 109.259 727.164 118.682C725.697 127.719 722.743 135.617 718.302 142.376C713.9 149.096 708.436 154.329 701.91 158.075C695.423 161.782 688.24 163.636 680.363 163.636ZM680.595 151.355C686.85 151.355 692.276 149.752 696.871 146.547C701.504 143.341 705.25 139.112 708.108 133.86C711.004 128.608 712.954 122.93 713.958 116.828C714.885 111.035 714.846 105.648 713.842 100.666C712.838 95.6452 710.695 91.6094 707.413 88.5584C704.13 85.4688 699.516 83.924 693.569 83.924C687.314 83.924 681.85 85.5461 677.177 88.7901C672.543 92.0342 668.798 96.3018 665.94 101.593C663.083 106.884 661.171 112.58 660.206 118.682C659.279 124.475 659.298 129.863 660.264 134.845C661.268 139.788 663.411 143.785 666.693 146.836C670.014 149.849 674.648 151.355 680.595 151.355Z" fill="url(#paint6_linear_1320_46559)"/>
<path d="M795.411 72.8014L793.558 84.3874H745.598L747.451 72.8014H795.411ZM746.988 161.782L763.901 60.5202C764.674 55.4223 766.527 51.1741 769.462 47.7755C772.435 44.377 775.968 41.828 780.062 40.1287C784.193 38.4295 788.383 37.5798 792.631 37.5798C795.99 37.5798 798.674 37.8502 800.682 38.3908C802.729 38.9315 804.215 39.4336 805.142 39.897L799.35 51.7148C798.655 51.4831 797.728 51.1934 796.569 50.8458C795.45 50.4983 793.905 50.3245 791.936 50.3245C787.418 50.3245 783.981 51.4638 781.626 53.7424C779.27 56.0209 777.687 59.3616 776.876 63.7643L760.658 161.782H746.988Z" fill="url(#paint7_linear_1320_46559)"/>
<path d="M909.619 84.6771H884.249C883.786 81.3944 882.84 78.4786 881.411 75.9296C879.982 73.3421 878.148 71.1407 875.909 69.3256C873.669 67.5104 871.082 66.1201 868.147 65.1546C865.251 64.1891 862.104 63.7064 858.706 63.7064C852.566 63.7064 847.218 65.2319 842.661 68.2828C838.105 71.2952 834.571 75.6979 832.061 81.4909C829.551 87.2453 828.296 94.2356 828.296 102.462C828.296 110.92 829.551 118.026 832.061 123.78C834.61 129.534 838.163 133.879 842.719 136.814C847.276 139.749 852.547 141.217 858.532 141.217C861.891 141.217 865 140.773 867.857 139.885C870.753 138.996 873.321 137.703 875.561 136.003C877.801 134.265 879.654 132.161 881.122 129.689C882.628 127.217 883.67 124.398 884.249 121.231L909.619 121.347C908.963 126.792 907.322 132.045 904.696 137.104C902.109 142.125 898.614 146.624 894.212 150.602C889.849 154.541 884.636 157.669 878.573 159.986C872.549 162.265 865.734 163.404 858.126 163.404C847.546 163.404 838.085 161.01 829.745 156.221C821.442 151.432 814.878 144.5 810.051 135.424C805.263 126.348 802.869 115.361 802.869 102.462C802.869 89.5239 805.301 78.5172 810.167 69.4415C815.032 60.3657 821.635 53.4527 829.976 48.7024C838.317 43.9135 847.7 41.5191 858.126 41.5191C865 41.5191 871.371 42.4846 877.241 44.4156C883.149 46.3466 888.381 49.1659 892.938 52.8734C897.494 56.5423 901.201 61.0416 904.059 66.3711C906.955 71.7007 908.808 77.8027 909.619 84.6771Z" fill="url(#paint8_linear_1320_46559)"/>
<path d="M951.816 110.34V161.782H927.141V43.1411H951.121V88.5005H952.163C954.171 83.2482 957.415 79.1351 961.894 76.1614C966.374 73.149 971.992 71.6428 978.75 71.6428C984.928 71.6428 990.315 72.9945 994.91 75.6979C999.544 78.3627 1003.13 82.2054 1005.68 87.226C1008.27 92.208 1009.55 98.1748 1009.51 105.126V161.782H984.832V109.529C984.87 104.045 983.48 99.7776 980.661 96.7266C977.881 93.6756 973.981 92.1501 968.961 92.1501C965.601 92.1501 962.628 92.8646 960.041 94.2935C957.492 95.7225 955.484 97.808 954.017 100.55C952.588 103.253 951.854 106.517 951.816 110.34Z" fill="url(#paint9_linear_1320_46559)"/>
<path d="M1054.29 163.462C1048.62 163.462 1043.56 162.477 1039.12 160.508C1034.68 158.5 1031.16 155.545 1028.58 151.644C1026.03 147.705 1024.75 142.8 1024.75 136.93C1024.75 131.987 1025.66 127.835 1027.48 124.475C1029.29 121.115 1031.76 118.412 1034.89 116.365C1038.02 114.318 1041.57 112.773 1045.55 111.731C1049.56 110.688 1053.77 109.954 1058.18 109.529C1063.35 108.988 1067.52 108.486 1070.69 108.023C1073.85 107.521 1076.15 106.787 1077.58 105.822C1079.01 104.856 1079.72 103.427 1079.72 101.535V101.187C1079.72 97.5183 1078.56 94.6797 1076.25 92.6715C1073.97 90.6632 1070.73 89.6591 1066.52 89.6591C1062.08 89.6591 1058.54 90.6439 1055.92 92.6135C1053.29 94.5446 1051.55 96.9776 1050.7 99.9128L1027.88 98.059C1029.04 92.6522 1031.32 87.9791 1034.72 84.0399C1038.12 80.062 1042.5 77.011 1047.87 74.8869C1053.27 72.7242 1059.53 71.6428 1066.63 71.6428C1071.58 71.6428 1076.31 72.2221 1080.82 73.3807C1085.38 74.5393 1089.42 76.3351 1092.93 78.7682C1096.48 81.2013 1099.28 84.3295 1101.33 88.1529C1103.37 91.9377 1104.4 96.4756 1104.4 101.767V161.782H1081V149.443H1080.3C1078.87 152.224 1076.96 154.676 1074.57 156.8C1072.17 158.886 1069.3 160.527 1065.94 161.724C1062.58 162.883 1058.7 163.462 1054.29 163.462ZM1061.36 146.431C1064.99 146.431 1068.2 145.716 1070.98 144.287C1073.76 142.82 1075.94 140.85 1077.52 138.378C1079.1 135.907 1079.9 133.107 1079.9 129.979V120.536C1079.12 121.038 1078.06 121.501 1076.71 121.926C1075.4 122.312 1073.91 122.679 1072.25 123.027C1070.59 123.336 1068.93 123.626 1067.27 123.896C1065.61 124.128 1064.1 124.34 1062.75 124.533C1059.86 124.958 1057.33 125.634 1055.16 126.561C1053 127.488 1051.32 128.743 1050.12 130.326C1048.93 131.871 1048.33 133.802 1048.33 136.119C1048.33 139.479 1049.55 142.047 1051.98 143.824C1054.45 145.562 1057.58 146.431 1061.36 146.431Z" fill="url(#paint10_linear_1320_46559)"/>
<path d="M1123.54 161.782V72.8014H1148.22V161.782H1123.54ZM1135.94 61.3312C1132.27 61.3312 1129.12 60.1147 1126.5 57.6816C1123.91 55.2099 1122.61 52.2555 1122.61 48.8183C1122.61 45.4197 1123.91 42.5039 1126.5 40.0708C1129.12 37.5991 1132.27 36.3633 1135.94 36.3633C1139.6 36.3633 1142.73 37.5991 1145.32 40.0708C1147.95 42.5039 1149.26 45.4197 1149.26 48.8183C1149.26 52.2555 1147.95 55.2099 1145.32 57.6816C1142.73 60.1147 1139.6 61.3312 1135.94 61.3312Z" fill="url(#paint11_linear_1320_46559)"/>
<path d="M1192.66 110.34V161.782H1167.98V72.8014H1191.5V88.5005H1192.54C1194.51 83.3254 1197.81 79.2317 1202.45 76.2193C1207.08 73.1683 1212.7 71.6428 1219.3 71.6428C1225.48 71.6428 1230.87 72.9945 1235.46 75.6979C1240.06 78.4013 1243.63 82.2633 1246.18 87.284C1248.73 92.266 1250 98.2135 1250 105.126V161.782H1225.33V109.529C1225.36 104.084 1223.97 99.8355 1221.15 96.7845C1218.34 93.6949 1214.45 92.1501 1209.51 92.1501C1206.19 92.1501 1203.26 92.8646 1200.71 94.2935C1198.2 95.7225 1196.23 97.808 1194.8 100.55C1193.41 103.253 1192.7 106.517 1192.66 110.34Z" fill="url(#paint12_linear_1320_46559)"/>
<defs>
<linearGradient id="paint0_linear_1320_46559" x1="159.333" y1="15.3333" x2="-14.6667" y2="200" gradientUnits="userSpaceOnUse">
<stop offset="0.0768536" stop-color="#A68EFD"/>
<stop offset="1" stop-color="#F4ACF3"/>
</linearGradient>
<linearGradient id="paint1_linear_1320_46559" x1="159.333" y1="15.3333" x2="-14.6667" y2="200" gradientUnits="userSpaceOnUse">
<stop offset="0.0768536" stop-color="#A68EFD"/>
<stop offset="1" stop-color="#F4ACF3"/>
</linearGradient>
<linearGradient id="paint2_linear_1320_46559" x1="1046.67" y1="46.1209" x2="1020.44" y2="264.822" gradientUnits="userSpaceOnUse">
<stop offset="0.0768536" stop-color="#A68EFD"/>
<stop offset="1" stop-color="#F4ACF3"/>
</linearGradient>
<linearGradient id="paint3_linear_1320_46559" x1="1046.67" y1="46.1209" x2="1020.44" y2="264.822" gradientUnits="userSpaceOnUse">
<stop offset="0.0768536" stop-color="#A68EFD"/>
<stop offset="1" stop-color="#F4ACF3"/>
</linearGradient>
<linearGradient id="paint4_linear_1320_46559" x1="1046.67" y1="46.1209" x2="1020.44" y2="264.822" gradientUnits="userSpaceOnUse">
<stop offset="0.0768536" stop-color="#A68EFD"/>
<stop offset="1" stop-color="#F4ACF3"/>
</linearGradient>
<linearGradient id="paint5_linear_1320_46559" x1="1046.67" y1="46.1209" x2="1020.44" y2="264.822" gradientUnits="userSpaceOnUse">
<stop offset="0.0768536" stop-color="#A68EFD"/>
<stop offset="1" stop-color="#F4ACF3"/>
</linearGradient>
<linearGradient id="paint6_linear_1320_46559" x1="1046.67" y1="46.1209" x2="1020.44" y2="264.822" gradientUnits="userSpaceOnUse">
<stop offset="0.0768536" stop-color="#A68EFD"/>
<stop offset="1" stop-color="#F4ACF3"/>
</linearGradient>
<linearGradient id="paint7_linear_1320_46559" x1="1046.67" y1="46.1209" x2="1020.44" y2="264.822" gradientUnits="userSpaceOnUse">
<stop offset="0.0768536" stop-color="#A68EFD"/>
<stop offset="1" stop-color="#F4ACF3"/>
</linearGradient>
<linearGradient id="paint8_linear_1320_46559" x1="1046.67" y1="46.1209" x2="1020.44" y2="264.822" gradientUnits="userSpaceOnUse">
<stop offset="0.0768536" stop-color="#A68EFD"/>
<stop offset="1" stop-color="#F4ACF3"/>
</linearGradient>
<linearGradient id="paint9_linear_1320_46559" x1="1046.67" y1="46.1209" x2="1020.44" y2="264.822" gradientUnits="userSpaceOnUse">
<stop offset="0.0768536" stop-color="#A68EFD"/>
<stop offset="1" stop-color="#F4ACF3"/>
</linearGradient>
<linearGradient id="paint10_linear_1320_46559" x1="1046.67" y1="46.1209" x2="1020.44" y2="264.822" gradientUnits="userSpaceOnUse">
<stop offset="0.0768536" stop-color="#A68EFD"/>
<stop offset="1" stop-color="#F4ACF3"/>
</linearGradient>
<linearGradient id="paint11_linear_1320_46559" x1="1046.67" y1="46.1209" x2="1020.44" y2="264.822" gradientUnits="userSpaceOnUse">
<stop offset="0.0768536" stop-color="#A68EFD"/>
<stop offset="1" stop-color="#F4ACF3"/>
</linearGradient>
<linearGradient id="paint12_linear_1320_46559" x1="1046.67" y1="46.1209" x2="1020.44" y2="264.822" gradientUnits="userSpaceOnUse">
<stop offset="0.0768536" stop-color="#A68EFD"/>
<stop offset="1" stop-color="#F4ACF3"/>
</linearGradient>
</defs>
</svg>
