<svg width="176" height="40" viewBox="0 0 176 40" fill="none" xmlns="http://www.w3.org/2000/svg">
<path d="M16.3262 23.0572C16.0159 23.3675 15.6338 23.5965 15.2138 23.7237C14.7938 23.8509 14.3488 23.8725 13.9185 23.7865C13.4881 23.7005 13.0857 23.5096 12.7468 23.2308C12.4079 22.9519 12.1431 22.5937 11.9759 22.188C11.8087 21.7822 11.7442 21.3414 11.7882 20.9048C11.8322 20.4681 11.9833 20.0491 12.2282 19.6849C12.473 19.3207 12.8039 19.0225 13.1916 18.8169C13.5793 18.6112 14.0118 18.5045 14.4506 18.5061C14.6256 18.5063 14.8001 18.5241 14.9715 18.5593C15.3085 18.6274 15.6289 18.7605 15.915 18.9512C16.0628 19.0496 16.2006 19.1623 16.3262 19.2879L18.2116 21.1718L16.3262 23.0572Z" fill="url(#paint0_linear_3914_9285)"/>
<path fill-rule="evenodd" clip-rule="evenodd" d="M20 40C31.0457 40 40 31.0457 40 20C40 8.95431 31.0457 0 20 0C8.95431 0 0 8.95431 0 20C0 31.0457 8.95431 40 20 40ZM27.3082 18.5589C27.6577 18.4887 28.0177 18.4887 28.3672 18.5589C28.6753 18.6205 28.97 18.7365 29.2374 18.9015C29.388 18.9968 29.5665 19.0382 29.7437 19.019C29.9209 18.9999 30.0864 18.9212 30.2132 18.7959L32.0564 16.9527C32.1361 16.8732 32.1979 16.7776 32.2375 16.6722C32.2772 16.5669 32.2939 16.4543 32.2864 16.342C32.2789 16.2296 32.2475 16.1202 32.1942 16.0211C32.1409 15.9219 32.0671 15.8353 31.9775 15.7671C31.8214 15.6467 31.6615 15.5343 31.4977 15.43C30.1914 14.5957 28.6392 14.2329 27.0984 14.4019C25.5576 14.5708 24.1209 15.2613 23.0264 16.3589L21.141 18.2447L19.2552 16.3589C18.2949 15.3995 17.0699 14.7488 15.7374 14.4902C14.4048 14.2316 13.0253 14.377 11.7759 14.9076V12.7884C11.7759 12.5792 11.6928 12.3787 11.545 12.2308C11.3971 12.0829 11.1965 11.9998 10.9874 11.9998H8.42461C8.21548 11.9998 8.01491 12.0829 7.86703 12.2308C7.71915 12.3787 7.63607 12.5792 7.63607 12.7884V21.1718C7.63575 22.5178 8.03467 23.8338 8.78236 24.9531C9.53005 26.0724 10.5929 26.9448 11.8365 27.46C13.0801 27.9752 14.4486 28.1099 15.7688 27.8472C17.089 27.5845 18.3016 26.9362 19.2532 25.9842L25.9519 19.286C26.3221 18.9148 26.7941 18.6618 27.3082 18.5589ZM28.3668 23.7841C28.0176 23.8543 27.6578 23.8543 27.3086 23.7841C26.7944 23.6814 26.3222 23.4283 25.9519 23.0571L25.1815 22.2867C25.0336 22.1389 24.8331 22.0558 24.624 22.0558C24.4149 22.0558 24.2144 22.1389 24.0665 22.2867L22.2529 24.1003C22.1796 24.1736 22.1215 24.2605 22.0819 24.3562C22.0422 24.4519 22.0218 24.5545 22.0218 24.658C22.0218 24.7616 22.0422 24.8642 22.0819 24.9599C22.1215 25.0556 22.1796 25.1425 22.2529 25.2157L23.0237 25.9861C24.1181 27.0837 25.5549 27.7742 27.0956 27.9431C28.6364 28.1121 30.1887 27.7493 31.495 26.915C31.631 26.8279 31.8104 26.6927 31.9831 26.5519C32.069 26.4824 32.1393 26.3955 32.1894 26.297C32.2396 26.1985 32.2685 26.0906 32.2743 25.9802C32.28 25.8698 32.2625 25.7595 32.2229 25.6563C32.1832 25.5531 32.1224 25.4594 32.0442 25.3813L30.212 23.5492C30.0853 23.4238 29.9198 23.345 29.7426 23.3258C29.5654 23.3065 29.3869 23.3479 29.2362 23.4431C28.9688 23.6072 28.6745 23.7227 28.3668 23.7841Z" fill="url(#paint1_linear_3914_9285)"/>
<path d="M50 27.7666V12.8521H55.9708C57.0679 12.8521 57.9829 13.0147 58.7159 13.34C59.4489 13.6653 59.9999 14.1168 60.3688 14.6945C60.7378 15.2674 60.9222 15.9277 60.9222 16.6754C60.9222 17.258 60.8057 17.7702 60.5727 18.212C60.3397 18.6489 60.0193 19.0082 59.6116 19.2898C59.2087 19.5665 58.7475 19.7631 58.2281 19.8796V20.0253C58.796 20.0496 59.3276 20.2098 59.8227 20.5059C60.3227 20.8021 60.7281 21.2172 61.0387 21.7512C61.3494 22.2804 61.5047 22.9116 61.5047 23.6447C61.5047 24.436 61.3081 25.1425 60.9149 25.7639C60.5266 26.3805 59.9514 26.8684 59.1892 27.2277C58.4271 27.5869 57.4878 27.7666 56.3713 27.7666H50ZM53.1529 25.1886H55.7232C56.6019 25.1886 57.2427 25.0211 57.6456 24.6861C58.0485 24.3462 58.2499 23.8947 58.2499 23.3315C58.2499 22.9189 58.1504 22.5547 57.9514 22.2392C57.7524 21.9236 57.4684 21.676 57.0994 21.4964C56.7354 21.3167 56.3009 21.2269 55.7961 21.2269H53.1529V25.1886ZM53.1529 19.0931H55.4902C55.9223 19.0931 56.3058 19.0179 56.6407 18.8674C56.9805 18.712 57.2475 18.4935 57.4417 18.212C57.6407 17.9304 57.7402 17.5929 57.7402 17.1997C57.7402 16.6608 57.5485 16.2263 57.165 15.8961C56.7863 15.566 56.2475 15.4009 55.5485 15.4009H53.1529V19.0931Z" fill="url(#paint2_linear_3914_9285)"/>
<path d="M66.6873 27.9778C65.9738 27.9778 65.3378 27.854 64.7796 27.6064C64.2213 27.3539 63.7796 26.9825 63.4544 26.4921C63.134 25.9969 62.9738 25.3803 62.9738 24.6424C62.9738 24.0209 63.0879 23.499 63.316 23.0767C63.5442 22.6543 63.8548 22.3144 64.248 22.0571C64.6412 21.7998 65.0878 21.6056 65.5878 21.4745C66.0927 21.3434 66.6218 21.2512 67.1752 21.1978C67.8257 21.1298 68.3499 21.0667 68.748 21.0084C69.1461 20.9453 69.4349 20.8531 69.6145 20.7317C69.7941 20.6103 69.8839 20.4307 69.8839 20.1928V20.1491C69.8839 19.6879 69.7383 19.331 69.447 19.0786C69.1606 18.8261 68.7529 18.6999 68.2237 18.6999C67.6655 18.6999 67.2213 18.8237 66.8912 19.0713C66.5611 19.314 66.3427 19.6199 66.2359 19.9889L63.367 19.7558C63.5126 19.0761 63.799 18.4887 64.2262 17.9935C64.6534 17.4934 65.2043 17.1099 65.8791 16.8428C66.5587 16.571 67.3451 16.435 68.2383 16.435C68.8597 16.435 69.4543 16.5079 70.0223 16.6535C70.5951 16.7992 71.1024 17.0249 71.5441 17.3308C71.9907 17.6366 72.3426 18.0299 72.5999 18.5105C72.8572 18.9863 72.9858 19.5568 72.9858 20.2219V27.7666H70.0441V26.2154H69.9567C69.7771 26.565 69.5368 26.8733 69.2359 27.1403C68.9349 27.4024 68.5732 27.6088 68.1509 27.7593C67.7286 27.9049 67.2407 27.9778 66.6873 27.9778ZM67.5757 25.8367C68.032 25.8367 68.4349 25.7469 68.7844 25.5673C69.1339 25.3828 69.4082 25.1352 69.6072 24.8244C69.8062 24.5137 69.9058 24.1617 69.9058 23.7685V22.5814C69.8087 22.6446 69.6752 22.7028 69.5053 22.7562C69.3402 22.8048 69.1533 22.8509 68.9446 22.8946C68.7359 22.9334 68.5271 22.9698 68.3184 23.0038C68.1097 23.033 67.9203 23.0597 67.7504 23.0839C67.3864 23.1373 67.0684 23.2223 66.7966 23.3388C66.5247 23.4553 66.3136 23.6131 66.1631 23.8122C66.0126 24.0064 65.9374 24.2491 65.9374 24.5404C65.9374 24.9628 66.0903 25.2857 66.3961 25.509C66.7068 25.7275 67.1 25.8367 67.5757 25.8367Z" fill="url(#paint3_linear_3914_9285)"/>
<path d="M78.4943 21.2997V27.7666H75.3924V16.5807H78.3486V18.5542H78.4797C78.7273 17.9037 79.1423 17.389 79.7248 17.0103C80.3074 16.6268 81.0137 16.435 81.8438 16.435C82.6204 16.435 83.2976 16.605 83.8753 16.9448C84.453 17.2847 84.902 17.7702 85.2224 18.4013C85.5428 19.0276 85.7029 19.7753 85.7029 20.6443V27.7666H82.601V21.1978C82.6059 20.5132 82.4311 19.9792 82.0768 19.5956C81.7224 19.2072 81.2345 19.013 80.6132 19.013C80.1957 19.013 79.8268 19.1028 79.5064 19.2825C79.1909 19.4621 78.9433 19.7243 78.7637 20.069C78.5889 20.4088 78.4991 20.8191 78.4943 21.2997Z" fill="url(#paint4_linear_3914_9285)"/>
<path d="M90.9584 24.5477L90.9656 20.8264H91.4171L94.9996 16.5807H98.5602L93.7472 22.2028H93.0117L90.9584 24.5477ZM88.1477 27.7666V12.8521H91.2496V27.7666H88.1477ZM95.1379 27.7666L91.8467 22.8946L93.9146 20.7026L98.7714 27.7666H95.1379Z" fill="url(#paint5_linear_3914_9285)"/>
<path d="M104.101 27.9996C103.072 27.9996 102.211 27.7544 101.517 27.2641C100.822 26.7737 100.332 26.0867 100.046 25.2031C99.7641 24.3195 99.718 23.2903 99.9073 22.1154C100.092 20.9696 100.458 19.9719 101.007 19.1223C101.56 18.2678 102.247 17.6075 103.067 17.1414C103.893 16.6705 104.8 16.435 105.791 16.435C106.82 16.435 107.679 16.6826 108.368 17.1778C109.063 17.6682 109.553 18.3576 109.839 19.2461C110.126 20.1297 110.174 21.1638 109.985 22.3484C109.8 23.4845 109.429 24.4773 108.871 25.3269C108.317 26.1717 107.631 26.8296 106.81 27.3005C105.995 27.7666 105.092 27.9996 104.101 27.9996ZM104.131 26.4557C104.917 26.4557 105.599 26.2542 106.177 25.8513C106.759 25.4483 107.23 24.9167 107.589 24.2564C107.953 23.5961 108.198 22.8825 108.325 22.1154C108.441 21.3871 108.436 20.7098 108.31 20.0836C108.184 19.4524 107.915 18.9451 107.502 18.5615C107.089 18.1731 106.509 17.9789 105.762 17.9789C104.975 17.9789 104.288 18.1828 103.701 18.5906C103.118 18.9985 102.648 19.5349 102.288 20.2001C101.929 20.8652 101.689 21.5813 101.567 22.3484C101.451 23.0767 101.453 23.7539 101.575 24.3802C101.701 25.0017 101.97 25.5041 102.383 25.8877C102.8 26.2664 103.383 26.4557 104.131 26.4557Z" fill="url(#paint6_linear_3914_9285)"/>
<path d="M118.564 16.5807L118.331 18.0372H112.302L112.535 16.5807H118.564ZM112.477 27.7666L114.603 15.0368C114.7 14.3959 114.933 13.8619 115.302 13.4346C115.676 13.0074 116.12 12.687 116.635 12.4734C117.154 12.2597 117.681 12.1529 118.215 12.1529C118.637 12.1529 118.974 12.1869 119.227 12.2549C119.484 12.3229 119.671 12.386 119.788 12.4442L119.059 13.9299C118.972 13.9007 118.856 13.8643 118.71 13.8206C118.569 13.7769 118.375 13.7551 118.127 13.7551C117.559 13.7551 117.127 13.8983 116.831 14.1847C116.535 14.4712 116.336 14.8911 116.234 15.4446L114.195 27.7666H112.477Z" fill="url(#paint7_linear_3914_9285)"/>
<path d="M132.922 18.0736H129.732C129.674 17.6609 129.555 17.2944 129.375 16.9739C129.196 16.6487 128.965 16.3719 128.684 16.1437C128.402 15.9155 128.077 15.7408 127.708 15.6194C127.344 15.498 126.948 15.4373 126.521 15.4373C125.749 15.4373 125.077 15.6291 124.504 16.0126C123.931 16.3913 123.487 16.9448 123.172 17.6731C122.856 18.3964 122.698 19.2752 122.698 20.3093C122.698 21.3726 122.856 22.2659 123.172 22.9893C123.492 23.7127 123.939 24.2588 124.511 24.6278C125.084 24.9968 125.747 25.1813 126.499 25.1813C126.922 25.1813 127.312 25.1255 127.672 25.0138C128.036 24.9021 128.358 24.7395 128.64 24.5259C128.922 24.3074 129.155 24.0428 129.339 23.7321C129.528 23.4214 129.659 23.0669 129.732 22.6688L132.922 22.6834C132.839 23.368 132.633 24.0282 132.303 24.6642C131.977 25.2954 131.538 25.861 130.985 26.3611C130.436 26.8563 129.781 27.2495 129.019 27.5408C128.261 27.8273 127.405 27.9705 126.448 27.9705C125.118 27.9705 123.929 27.6695 122.88 27.0675C121.837 26.4654 121.011 25.594 120.405 24.453C119.803 23.3121 119.502 21.9309 119.502 20.3093C119.502 18.6829 119.808 17.2992 120.419 16.1583C121.031 15.0174 121.861 14.1483 122.91 13.5512C123.958 12.9492 125.138 12.6481 126.448 12.6481C127.312 12.6481 128.113 12.7695 128.851 13.0123C129.594 13.255 130.252 13.6094 130.824 14.0755C131.397 14.5367 131.863 15.1023 132.223 15.7723C132.587 16.4423 132.82 17.2094 132.922 18.0736Z" fill="url(#paint8_linear_3914_9285)"/>
<path d="M138.226 21.2997V27.7666H135.124V12.8521H138.139V18.5542H138.27C138.522 17.894 138.93 17.3769 139.493 17.0031C140.056 16.6244 140.763 16.435 141.612 16.435C142.389 16.435 143.066 16.605 143.644 16.9448C144.226 17.2798 144.678 17.7629 144.998 18.394C145.323 19.0203 145.483 19.7704 145.478 20.6443V27.7666H142.377V21.1978C142.381 20.5084 142.207 19.9719 141.852 19.5883C141.503 19.2048 141.013 19.013 140.381 19.013C139.959 19.013 139.585 19.1028 139.26 19.2825C138.94 19.4621 138.687 19.7243 138.503 20.069C138.323 20.4088 138.231 20.8191 138.226 21.2997Z" fill="url(#paint9_linear_3914_9285)"/>
<path d="M151.109 27.9778C150.395 27.9778 149.759 27.854 149.201 27.6064C148.643 27.3539 148.201 26.9825 147.876 26.4921C147.556 25.9969 147.395 25.3803 147.395 24.6424C147.395 24.0209 147.509 23.499 147.738 23.0767C147.966 22.6543 148.276 22.3144 148.67 22.0571C149.063 21.7998 149.509 21.6056 150.009 21.4745C150.514 21.3434 151.043 21.2512 151.597 21.1978C152.247 21.1298 152.771 21.0667 153.17 21.0084C153.568 20.9453 153.856 20.8531 154.036 20.7317C154.216 20.6103 154.305 20.4307 154.305 20.1928V20.1491C154.305 19.6879 154.16 19.331 153.869 19.0786C153.582 18.8261 153.174 18.6999 152.645 18.6999C152.087 18.6999 151.643 18.8237 151.313 19.0713C150.983 19.314 150.764 19.6199 150.657 19.9889L147.789 19.7558C147.934 19.0761 148.221 18.4887 148.648 17.9935C149.075 17.4934 149.626 17.1099 150.301 16.8428C150.98 16.571 151.767 16.435 152.66 16.435C153.281 16.435 153.876 16.5079 154.444 16.6535C155.017 16.7992 155.524 17.0249 155.966 17.3308C156.412 17.6366 156.764 18.0299 157.021 18.5105C157.279 18.9863 157.407 19.5568 157.407 20.2219V27.7666H154.466V26.2154H154.378C154.199 26.565 153.958 26.8733 153.657 27.1403C153.356 27.4024 152.995 27.6088 152.572 27.7593C152.15 27.9049 151.662 27.9778 151.109 27.9778ZM151.997 25.8367C152.454 25.8367 152.856 25.7469 153.206 25.5673C153.555 25.3828 153.83 25.1352 154.029 24.8244C154.228 24.5137 154.327 24.1617 154.327 23.7685V22.5814C154.23 22.6446 154.097 22.7028 153.927 22.7562C153.762 22.8048 153.575 22.8509 153.366 22.8946C153.157 22.9334 152.949 22.9698 152.74 23.0038C152.531 23.033 152.342 23.0597 152.172 23.0839C151.808 23.1373 151.49 23.2223 151.218 23.3388C150.946 23.4553 150.735 23.6131 150.585 23.8122C150.434 24.0064 150.359 24.2491 150.359 24.5404C150.359 24.9628 150.512 25.2857 150.818 25.509C151.128 25.7275 151.521 25.8367 151.997 25.8367Z" fill="url(#paint10_linear_3914_9285)"/>
<path d="M159.814 27.7666V16.5807H162.916V27.7666H159.814ZM161.372 15.1387C160.911 15.1387 160.515 14.9858 160.185 14.68C159.86 14.3692 159.697 13.9978 159.697 13.5657C159.697 13.1385 159.86 12.7719 160.185 12.4661C160.515 12.1554 160.911 12 161.372 12C161.833 12 162.227 12.1554 162.552 12.4661C162.882 12.7719 163.047 13.1385 163.047 13.5657C163.047 13.9978 162.882 14.3692 162.552 14.68C162.227 14.9858 161.833 15.1387 161.372 15.1387Z" fill="url(#paint11_linear_3914_9285)"/>
<path d="M168.503 21.2997V27.7666H165.401V16.5807H168.357V18.5542H168.488C168.736 17.9037 169.151 17.389 169.733 17.0103C170.316 16.6268 171.022 16.435 171.852 16.435C172.629 16.435 173.306 16.605 173.884 16.9448C174.461 17.2847 174.91 17.7702 175.231 18.4013C175.551 19.0276 175.711 19.7753 175.711 20.6443V27.7666H172.609V21.1978C172.614 20.5132 172.439 19.9792 172.085 19.5956C171.731 19.2072 171.243 19.013 170.621 19.013C170.204 19.013 169.835 19.1028 169.515 19.2825C169.199 19.4621 168.952 19.7243 168.772 20.069C168.597 20.4088 168.507 20.8191 168.503 21.2997Z" fill="url(#paint12_linear_3914_9285)"/>
<defs>
<linearGradient id="paint0_linear_3914_9285" x1="34.1333" y1="1.23003e-06" x2="0" y2="40" gradientUnits="userSpaceOnUse">
<stop stop-color="#FE3DCE"/>
<stop offset="1" stop-color="#5B93E0"/>
</linearGradient>
<linearGradient id="paint1_linear_3914_9285" x1="34.1333" y1="1.23003e-06" x2="0" y2="40" gradientUnits="userSpaceOnUse">
<stop stop-color="#FE3DCE"/>
<stop offset="1" stop-color="#5B93E0"/>
</linearGradient>
<linearGradient id="paint2_linear_3914_9285" x1="157.274" y1="12" x2="154.306" y2="39.3278" gradientUnits="userSpaceOnUse">
<stop stop-color="#FE3DCE"/>
<stop offset="1" stop-color="#5B93E0"/>
</linearGradient>
<linearGradient id="paint3_linear_3914_9285" x1="157.274" y1="12" x2="154.306" y2="39.3278" gradientUnits="userSpaceOnUse">
<stop stop-color="#FE3DCE"/>
<stop offset="1" stop-color="#5B93E0"/>
</linearGradient>
<linearGradient id="paint4_linear_3914_9285" x1="157.274" y1="12" x2="154.306" y2="39.3278" gradientUnits="userSpaceOnUse">
<stop stop-color="#FE3DCE"/>
<stop offset="1" stop-color="#5B93E0"/>
</linearGradient>
<linearGradient id="paint5_linear_3914_9285" x1="157.274" y1="12" x2="154.306" y2="39.3278" gradientUnits="userSpaceOnUse">
<stop stop-color="#FE3DCE"/>
<stop offset="1" stop-color="#5B93E0"/>
</linearGradient>
<linearGradient id="paint6_linear_3914_9285" x1="157.274" y1="12" x2="154.306" y2="39.3278" gradientUnits="userSpaceOnUse">
<stop stop-color="#FE3DCE"/>
<stop offset="1" stop-color="#5B93E0"/>
</linearGradient>
<linearGradient id="paint7_linear_3914_9285" x1="157.274" y1="12" x2="154.306" y2="39.3278" gradientUnits="userSpaceOnUse">
<stop stop-color="#FE3DCE"/>
<stop offset="1" stop-color="#5B93E0"/>
</linearGradient>
<linearGradient id="paint8_linear_3914_9285" x1="157.274" y1="12" x2="154.306" y2="39.3278" gradientUnits="userSpaceOnUse">
<stop stop-color="#FE3DCE"/>
<stop offset="1" stop-color="#5B93E0"/>
</linearGradient>
<linearGradient id="paint9_linear_3914_9285" x1="157.274" y1="12" x2="154.306" y2="39.3278" gradientUnits="userSpaceOnUse">
<stop stop-color="#FE3DCE"/>
<stop offset="1" stop-color="#5B93E0"/>
</linearGradient>
<linearGradient id="paint10_linear_3914_9285" x1="157.274" y1="12" x2="154.306" y2="39.3278" gradientUnits="userSpaceOnUse">
<stop stop-color="#FE3DCE"/>
<stop offset="1" stop-color="#5B93E0"/>
</linearGradient>
<linearGradient id="paint11_linear_3914_9285" x1="157.274" y1="12" x2="154.306" y2="39.3278" gradientUnits="userSpaceOnUse">
<stop stop-color="#FE3DCE"/>
<stop offset="1" stop-color="#5B93E0"/>
</linearGradient>
<linearGradient id="paint12_linear_3914_9285" x1="157.274" y1="12" x2="154.306" y2="39.3278" gradientUnits="userSpaceOnUse">
<stop stop-color="#FE3DCE"/>
<stop offset="1" stop-color="#5B93E0"/>
</linearGradient>
</defs>
</svg>
